{
  "accessors": [
    {
      "bufferView": 2,
      "componentType": 5126,
      "count": 12907,
      "max": [
        1.1381034851074219,
        1.9320553541183472,
        1.1938883066177368
      ],
      "min": [
        -0.9915360808372498,
        -0.1758766621351242,
        -1.1960614919662476
      ],
      "type": "VEC3"
    },
    {
      "bufferView": 2,
      "byteOffset": 154884,
      "componentType": 5126,
      "count": 12907,
      "max": [
        0.9999998807907104,
        0.9999945163726807,
        0.9999768733978271
      ],
      "min": [
        -0.999997615814209,
        -0.9999508857727051,
        -0.9999783039093018
      ],
      "type": "VEC3"
    },
    {
      "bufferView": 3,
      "componentType": 5126,
      "count": 12907,
      "max": [
        1.0,
        1.0,
        0.9999995231628418,
        1.0
      ],
      "min": [
        -0.9977798461914063,
        -0.9999998211860657,
        -0.9996074438095093,
        -1.0
      ],
      "type": "VEC4"
    },
    {
      "bufferView": 1,
      "componentType": 5126,
      "count": 12907,
      "max": [
        2.7100794315338135,
        2.72438383102417
      ],
      "min": [
        -1.7138910293579102,
        -1.8531184196472168
      ],
      "type": "VEC2"
    },
    {
      "bufferView": 1,
      "byteOffset": 103256,
      "componentType": 5126,
      "count": 12907,
      "max": [
        0.6250001788139343,
        0.75
      ],
      "min": [
        0.125,
        -2.384185791015625e-07
      ],
      "type": "VEC2"
    },
    {
      "bufferView": 1,
      "byteOffset": 206512,
      "componentType": 5126,
      "count": 12907,
      "max": [
        2.7100794315338135,
        2.72438383102417
      ],
      "min": [
        -1.7138910293579102,
        -1.8531184196472168
      ],
      "type": "VEC2"
    },
    {
      "bufferView": 1,
      "byteOffset": 309768,
      "componentType": 5126,
      "count": 12907,
      "max": [
        2.7100794315338135,
        2.72438383102417
      ],
      "min": [
        -1.7138910293579102,
        -1.8531184196472168
      ],
      "type": "VEC2"
    },
    {
      "bufferView": 1,
      "byteOffset": 413024,
      "componentType": 5126,
      "count": 12907,
      "max": [
        2.7100794315338135,
        2.72438383102417
      ],
      "min": [
        -1.7138910293579102,
        -1.8531184196472168
      ],
      "type": "VEC2"
    },
    {
      "bufferView": 0,
      "componentType": 5125,
      "count": 65088,
      "type": "SCALAR"
    },
    {
      "bufferView": 2,
      "byteOffset": 309768,
      "componentType": 5126,
      "count": 1431,
      "max": [
        0.41181790828704834,
        0.1011718213558197,
        0.4118176996707916
      ],
      "min": [
        -0.41181764006614685,
        -1.3375115394592285,
        -0.4118177592754364
      ],
      "type": "VEC3"
    },
    {
      "bufferView": 2,
      "byteOffset": 326940,
      "componentType": 5126,
      "count": 1431,
      "max": [
        0.9904316663742065,
        1.0,
        0.9904316663742065
      ],
      "min": [
        -0.9904316663742065,
        -0.7637026906013489,
        -0.9904316663742065
      ],
      "type": "VEC3"
    },
    {
      "bufferView": 3,
      "byteOffset": 206512,
      "componentType": 5126,
      "count": 1431,
      "max": [
        1.0,
        0.990432620048523,
        0.9296223521232605,
        1.0
      ],
      "min": [
        -1.0,
        -0.990432620048523,
        -1.0,
        -1.0
      ],
      "type": "VEC4"
    },
    {
      "bufferView": 1,
      "byteOffset": 516280,
      "componentType": 5126,
      "count": 1431,
      "max": [
        1.0259835720062256,
        1.4261194467544556
      ],
      "min": [
        -0.02598339319229126,
        -0.41140127182006836
      ],
      "type": "VEC2"
    },
    {
      "bufferView": 1,
      "byteOffset": 527728,
      "componentType": 5126,
      "count": 1431,
      "max": [
        1.0259835720062256,
        1.4261194467544556
      ],
      "min": [
        -0.02598339319229126,
        -0.41140127182006836
      ],
      "type": "VEC2"
    },
    {
      "bufferView": 1,
      "byteOffset": 539176,
      "componentType": 5126,
      "count": 1431,
      "max": [
        1.0259835720062256,
        1.4261194467544556
      ],
      "min": [
        -0.02598339319229126,
        -0.41140127182006836
      ],
      "type": "VEC2"
    },
    {
      "bufferView": 1,
      "byteOffset": 550624,
      "componentType": 5126,
      "count": 1431,
      "max": [
        0.875,
        1.0
      ],
      "min": [
        0.125,
        0.0
      ],
      "type": "VEC2"
    },
    {
      "bufferView": 1,
      "byteOffset": 562072,
      "componentType": 5126,
      "count": 1431,
      "max": [
        1.0259835720062256,
        1.4261194467544556
      ],
      "min": [
        -0.02598339319229126,
        -0.41140127182006836
      ],
      "type": "VEC2"
    },
    {
      "bufferView": 1,
      "byteOffset": 573520,
      "componentType": 5126,
      "count": 1431,
      "max": [
        1.0259835720062256,
        1.4261194467544556
      ],
      "min": [
        -0.02598339319229126,
        -0.41140127182006836
      ],
      "type": "VEC2"
    },
    {
      "bufferView": 0,
      "byteOffset": 260352,
      "componentType": 5125,
      "count": 4524,
      "type": "SCALAR"
    },
    {
      "bufferView": 2,
      "byteOffset": 344112,
      "componentType": 5126,
      "count": 4,
      "max": [
        1.0,
        0.0,
        1.0
      ],
      "min": [
        -1.0,
        0.0,
        -1.0
      ],
      "type": "VEC3"
    },
    {
      "bufferView": 2,
      "byteOffset": 344160,
      "componentType": 5126,
      "count": 4,
      "max": [
        0.0,
        1.0,
        0.0
      ],
      "min": [
        0.0,
        1.0,
        0.0
      ],
      "type": "VEC3"
    },
    {
      "bufferView": 3,
      "byteOffset": 229408,
      "componentType": 5126,
      "count": 4,
      "max": [
        1.0,
        0.0,
        0.0,
        -1.0
      ],
      "min": [
        1.0,
        0.0,
        0.0,
        -1.0
      ],
      "type": "VEC4"
    },
    {
      "bufferView": 1,
      "byteOffset": 584968,
      "componentType": 5126,
      "count": 4,
      "max": [
        1.0,
        1.0
      ],
      "min": [
        0.0,
        0.0
      ],
      "type": "VEC2"
    },
    {
      "bufferView": 1,
      "byteOffset": 585000,
      "componentType": 5126,
      "count": 4,
      "max": [
        1.0,
        1.0
      ],
      "min": [
        0.0,
        0.0
      ],
      "type": "VEC2"
    },
    {
      "bufferView": 1,
      "byteOffset": 585032,
      "componentType": 5126,
      "count": 4,
      "max": [
        1.0,
        1.0
      ],
      "min": [
        0.0,
        0.0
      ],
      "type": "VEC2"
    },
    {
      "bufferView": 1,
      "byteOffset": 585064,
      "componentType": 5126,
      "count": 4,
      "max": [
        1.0,
        1.0
      ],
      "min": [
        0.0,
        0.0
      ],
      "type": "VEC2"
    },
    {
      "bufferView": 0,
      "byteOffset": 278448,
      "componentType": 5125,
      "count": 6,
      "type": "SCALAR"
    }
  ],
  "asset": {
    "extras": {
      "author": "abhayexe (https://sketchfab.com/abhayexe)",
      "license": "SKETCHFAB Standard (https://sketchfab.com/licenses)",
      "source": "https://sketchfab.com/3d-models/chair-3d-model-8e21aa830b7e499da7c49a7da5c07ac9",
      "title": "Chair 3d model"
    },
    "generator": "Sketchfab-16.85.0",
    "version": "2.0"
  },
  "bufferViews": [
    {
      "buffer": 0,
      "byteLength": 278472,
      "name": "floatBufferViews",
      "target": 34963
    },
    {
      "buffer": 0,
      "byteLength": 585096,
      "byteOffset": 278472,
      "byteStride": 8,
      "name": "floatBufferViews",
      "target": 34962
    },
    {
      "buffer": 0,
      "byteLength": 344208,
      "byteOffset": 863568,
      "byteStride": 12,
      "name": "floatBufferViews",
      "target": 34962
    },
    {
      "buffer": 0,
      "byteLength": 229472,
      "byteOffset": 1207776,
      "byteStride": 16,
      "name": "floatBufferViews",
      "target": 34962
    }
  ],
  "buffers": [
    {
      "byteLength": 1437248,
      "uri": "scene.bin"
    }
  ],
  "extensionsUsed": [
    "KHR_materials_specular"
  ],
  "images": [
    {
      "uri": "textures/Leather_baseColor.jpeg"
    },
    {
      "uri": "textures/Leather_metallicRoughness.png"
    },
    {
      "uri": "textures/Leather_normal.jpeg"
    },
    {
      "uri": "textures/Leather_specularf0.png"
    },
    {
      "uri": "textures/Dark_metal_metallicRoughness.png"
    },
    {
      "uri": "textures/Dark_metal_normal.jpeg"
    },
    {
      "uri": "textures/Dark_metal_specularf0.png"
    },
    {
      "uri": "textures/Wood_baseColor.png"
    },
    {
      "uri": "textures/Wood_metallicRoughness.png"
    },
    {
      "uri": "textures/Wood_normal.jpeg"
    }
  ],
  "materials": [
    {
      "doubleSided": true,
      "extensions": {
        "KHR_materials_specular": {
          "specularColorFactor": [
            1.0,
            1.0,
            1.0
          ],
          "specularFactor": 1.0,
          "specularTexture": {
            "index": 3,
            "texCoord": 1
          }
        }
      },
      "name": "Leather",
      "normalTexture": {
        "index": 2
      },
      "pbrMetallicRoughness": {
        "baseColorTexture": {
          "index": 0
        },
        "metallicFactor": 0.0,
        "metallicRoughnessTexture": {
          "index": 1
        }
      }
    },
    {
      "doubleSided": true,
      "extensions": {
        "KHR_materials_specular": {
          "specularColorFactor": [
            1.0,
            1.0,
            1.0
          ],
          "specularFactor": 1.0,
          "specularTexture": {
            "index": 6,
            "texCoord": 2
          }
        }
      },
      "name": "Dark_metal",
      "normalTexture": {
        "index": 5,
        "texCoord": 1
      },
      "pbrMetallicRoughness": {
        "baseColorFactor": [
          0.15192759491204505,
          0.1536219119077996,
          0.18582499552980108,
          1.0
        ],
        "metallicRoughnessTexture": {
          "index": 4
        }
      }
    },
    {
      "alphaMode": "BLEND",
      "doubleSided": true,
      "name": "Wood",
      "normalTexture": {
        "index": 9
      },
      "pbrMetallicRoughness": {
        "baseColorTexture": {
          "index": 7
        },
        "metallicRoughnessTexture": {
          "index": 8
        },
        "roughnessFactor": 0.005769340703389271
      }
    }
  ],
  "meshes": [
    {
      "name": "Object_0",
      "primitives": [
        {
          "attributes": {
            "NORMAL": 1,
            "POSITION": 0,
            "TANGENT": 2,
            "TEXCOORD_0": 3,
            "TEXCOORD_1": 4,
            "TEXCOORD_2": 5,
            "TEXCOORD_3": 6,
            "TEXCOORD_4": 7
          },
          "indices": 8,
          "material": 0,
          "mode": 4
        }
      ]
    },
    {
      "name": "Object_1",
      "primitives": [
        {
          "attributes": {
            "NORMAL": 10,
            "POSITION": 9,
            "TANGENT": 11,
            "TEXCOORD_0": 12,
            "TEXCOORD_1": 13,
            "TEXCOORD_2": 14,
            "TEXCOORD_3": 15,
            "TEXCOORD_4": 16,
            "TEXCOORD_5": 17
          },
          "indices": 18,
          "material": 1,
          "mode": 4
        }
      ]
    },
    {
      "name": "Object_2",
      "primitives": [
        {
          "attributes": {
            "NORMAL": 20,
            "POSITION": 19,
            "TANGENT": 21,
            "TEXCOORD_0": 22,
            "TEXCOORD_1": 23,
            "TEXCOORD_2": 24,
            "TEXCOORD_3": 25
          },
          "indices": 26,
          "material": 2,
          "mode": 4
        }
      ]
    }
  ],
  "nodes": [
    {
      "children": [
        1
      ],
      "matrix": [
        1.0,
        0.0,
        0.0,
        0.0,
        0.0,
        2.220446049250313e-16,
        -1.0,
        0.0,
        0.0,
        1.0,
        2.220446049250313e-16,
        0.0,
        0.0,
        0.0,
        0.0,
        1.0
      ],
      "name": "Sketchfab_model"
    },
    {
      "children": [
        2
      ],
      "name": "root"
    },
    {
      "children": [
        3,
        5,
        7
      ],
      "matrix": [
        1.0,
        0.0,
        0.0,
        0.0,
        0.0,
        2.220446049250313e-16,
        1.0,
        0.0,
        0.0,
        -1.0,
        2.220446049250313e-16,
        0.0,
        0.0,
        0.0,
        0.0,
        1.0
      ],
      "name": "GLTF_SceneRootNode"
    },
    {
      "children": [
        4
      ],
      "matrix": [
        1.0,
        0.0,
        0.0,
        0.0,
        0.0,
        1.0,
        0.0,
        0.0,
        0.0,
        0.0,
        1.0,
        0.0,
        0.0,
        1.1172196865081787,
        0.0,
        1.0
      ],
      "name": "Cube_0"
    },
    {
      "mesh": 0,
      "name": "Object_4"
    },
    {
      "children": [
        6
      ],
      "matrix": [
        1.5769531726837158,
        0.0,
        0.0,
        0.0,
        0.0,
        0.6777651309967041,
        0.0,
        0.0,
        0.0,
        0.0,
        1.5769531726837158,
        0.0,
        -0.14935153722763062,
        1.0047913789749146,
        0.04120136797428131,
        1.0
      ],
      "name": "Cube.001_1"
    },
    {
      "mesh": 1,
      "name": "Object_6"
    },
    {
      "children": [
        8
      ],
      "matrix": [
        2.9709861278533936,
        0.0,
        0.0,
        0.0,
        0.0,
        2.9709861278533936,
        0.0,
        0.0,
        0.0,
        0.0,
        2.9709861278533936,
        0.0,
        0.0,
        0.0966862216591835,
        0.0,
        1.0
      ],
      "name": "Plane_2"
    },
    {
      "mesh": 2,
      "name": "Object_8"
    }
  ],
  "samplers": [
    {
      "magFilter": 9729,
      "minFilter": 9987,
      "wrapS": 10497,
      "wrapT": 10497
    }
  ],
  "scene": 0,
  "scenes": [
    {
      "name": "Sketchfab_Scene",
      "nodes": [
        0
      ]
    }
  ],
  "textures": [
    {
      "sampler": 0,
      "source": 0
    },
    {
      "sampler": 0,
      "source": 1
    },
    {
      "sampler": 0,
      "source": 2
    },
    {
      "sampler": 0,
      "source": 3
    },
    {
      "sampler": 0,
      "source": 4
    },
    {
      "sampler": 0,
      "source": 5
    },
    {
      "sampler": 0,
      "source": 6
    },
    {
      "sampler": 0,
      "source": 7
    },
    {
      "sampler": 0,
      "source": 8
    },
    {
      "sampler": 0,
      "source": 9
    }
  ]
}
